<mxfile host="app.diagrams.net" agent="Mozilla/5.0 (Windows NT 10.0; Win64; x64; rv:141.0) Gecko/20100101 Firefox/141.0" version="28.0.7" pages="2">
  <diagram name="timer" id="-1CRMZ3ilZ53mN010_KL">
    <mxGraphModel dx="983" dy="446" grid="1" gridSize="10" guides="1" tooltips="1" connect="1" arrows="0" fold="1" page="1" pageScale="1" pageWidth="827" pageHeight="1169" math="0" shadow="0">
      <root>
        <mxCell id="0" />
        <mxCell id="1" parent="0" />
        <mxCell id="DhFb5XIWoU-6fm3A12WK-10" value="" style="pointerEvents=1;verticalLabelPosition=bottom;shadow=0;dashed=0;align=center;html=1;verticalAlign=top;shape=mxgraph.electrical.waveforms.square_wave;" parent="1" vertex="1">
          <mxGeometry x="80" y="120" width="20" height="20" as="geometry" />
        </mxCell>
        <mxCell id="DhFb5XIWoU-6fm3A12WK-11" value="" style="pointerEvents=1;verticalLabelPosition=bottom;shadow=0;dashed=0;align=center;html=1;verticalAlign=top;shape=mxgraph.electrical.waveforms.square_wave;" parent="1" vertex="1">
          <mxGeometry x="100" y="120" width="20" height="20" as="geometry" />
        </mxCell>
        <mxCell id="DhFb5XIWoU-6fm3A12WK-12" value="" style="pointerEvents=1;verticalLabelPosition=bottom;shadow=0;dashed=0;align=center;html=1;verticalAlign=top;shape=mxgraph.electrical.waveforms.square_wave;" parent="1" vertex="1">
          <mxGeometry x="120" y="120" width="20" height="20" as="geometry" />
        </mxCell>
        <mxCell id="DhFb5XIWoU-6fm3A12WK-13" value="" style="pointerEvents=1;verticalLabelPosition=bottom;shadow=0;dashed=0;align=center;html=1;verticalAlign=top;shape=mxgraph.electrical.waveforms.square_wave;" parent="1" vertex="1">
          <mxGeometry x="140" y="120" width="20" height="20" as="geometry" />
        </mxCell>
        <mxCell id="DhFb5XIWoU-6fm3A12WK-14" value="" style="pointerEvents=1;verticalLabelPosition=bottom;shadow=0;dashed=0;align=center;html=1;verticalAlign=top;shape=mxgraph.electrical.waveforms.square_wave;" parent="1" vertex="1">
          <mxGeometry x="160" y="120" width="20" height="20" as="geometry" />
        </mxCell>
        <mxCell id="DhFb5XIWoU-6fm3A12WK-15" value="" style="pointerEvents=1;verticalLabelPosition=bottom;shadow=0;dashed=0;align=center;html=1;verticalAlign=top;shape=mxgraph.electrical.waveforms.square_wave;" parent="1" vertex="1">
          <mxGeometry x="180" y="120" width="20" height="20" as="geometry" />
        </mxCell>
        <mxCell id="DhFb5XIWoU-6fm3A12WK-16" value="" style="pointerEvents=1;verticalLabelPosition=bottom;shadow=0;dashed=0;align=center;html=1;verticalAlign=top;shape=mxgraph.electrical.waveforms.square_wave;" parent="1" vertex="1">
          <mxGeometry x="200" y="120" width="20" height="20" as="geometry" />
        </mxCell>
        <mxCell id="DhFb5XIWoU-6fm3A12WK-17" value="" style="pointerEvents=1;verticalLabelPosition=bottom;shadow=0;dashed=0;align=center;html=1;verticalAlign=top;shape=mxgraph.electrical.waveforms.square_wave;" parent="1" vertex="1">
          <mxGeometry x="220" y="120" width="20" height="20" as="geometry" />
        </mxCell>
        <mxCell id="DhFb5XIWoU-6fm3A12WK-18" value="" style="pointerEvents=1;verticalLabelPosition=bottom;shadow=0;dashed=0;align=center;html=1;verticalAlign=top;shape=mxgraph.electrical.waveforms.square_wave;" parent="1" vertex="1">
          <mxGeometry x="240" y="120" width="20" height="20" as="geometry" />
        </mxCell>
        <mxCell id="DhFb5XIWoU-6fm3A12WK-19" value="" style="pointerEvents=1;verticalLabelPosition=bottom;shadow=0;dashed=0;align=center;html=1;verticalAlign=top;shape=mxgraph.electrical.waveforms.square_wave;" parent="1" vertex="1">
          <mxGeometry x="260" y="120" width="20" height="20" as="geometry" />
        </mxCell>
        <mxCell id="DhFb5XIWoU-6fm3A12WK-20" value="" style="pointerEvents=1;verticalLabelPosition=bottom;shadow=0;dashed=0;align=center;html=1;verticalAlign=top;shape=mxgraph.electrical.waveforms.square_wave;" parent="1" vertex="1">
          <mxGeometry x="280" y="120" width="20" height="20" as="geometry" />
        </mxCell>
        <mxCell id="DhFb5XIWoU-6fm3A12WK-21" value="" style="pointerEvents=1;verticalLabelPosition=bottom;shadow=0;dashed=0;align=center;html=1;verticalAlign=top;shape=mxgraph.electrical.waveforms.square_wave;" parent="1" vertex="1">
          <mxGeometry x="300" y="120" width="20" height="20" as="geometry" />
        </mxCell>
        <mxCell id="DhFb5XIWoU-6fm3A12WK-23" value="" style="pointerEvents=1;verticalLabelPosition=bottom;shadow=0;dashed=0;align=center;html=1;verticalAlign=top;shape=mxgraph.electrical.waveforms.square_wave;" parent="1" vertex="1">
          <mxGeometry x="80" y="150" width="40" height="20" as="geometry" />
        </mxCell>
        <mxCell id="DhFb5XIWoU-6fm3A12WK-24" value="" style="pointerEvents=1;verticalLabelPosition=bottom;shadow=0;dashed=0;align=center;html=1;verticalAlign=top;shape=mxgraph.electrical.waveforms.square_wave;" parent="1" vertex="1">
          <mxGeometry x="120" y="150" width="40" height="20" as="geometry" />
        </mxCell>
        <mxCell id="DhFb5XIWoU-6fm3A12WK-25" value="" style="pointerEvents=1;verticalLabelPosition=bottom;shadow=0;dashed=0;align=center;html=1;verticalAlign=top;shape=mxgraph.electrical.waveforms.square_wave;" parent="1" vertex="1">
          <mxGeometry x="160" y="150" width="40" height="20" as="geometry" />
        </mxCell>
        <mxCell id="DhFb5XIWoU-6fm3A12WK-26" value="" style="pointerEvents=1;verticalLabelPosition=bottom;shadow=0;dashed=0;align=center;html=1;verticalAlign=top;shape=mxgraph.electrical.waveforms.square_wave;" parent="1" vertex="1">
          <mxGeometry x="200" y="150" width="40" height="20" as="geometry" />
        </mxCell>
        <mxCell id="DhFb5XIWoU-6fm3A12WK-27" value="" style="pointerEvents=1;verticalLabelPosition=bottom;shadow=0;dashed=0;align=center;html=1;verticalAlign=top;shape=mxgraph.electrical.waveforms.square_wave;" parent="1" vertex="1">
          <mxGeometry x="240" y="150" width="40" height="20" as="geometry" />
        </mxCell>
        <mxCell id="DhFb5XIWoU-6fm3A12WK-28" value="" style="pointerEvents=1;verticalLabelPosition=bottom;shadow=0;dashed=0;align=center;html=1;verticalAlign=top;shape=mxgraph.electrical.waveforms.square_wave;" parent="1" vertex="1">
          <mxGeometry x="280" y="150" width="40" height="20" as="geometry" />
        </mxCell>
        <mxCell id="DhFb5XIWoU-6fm3A12WK-29" value="100" style="rounded=0;whiteSpace=wrap;html=1;" parent="1" vertex="1">
          <mxGeometry x="80" y="190" width="40" height="20" as="geometry" />
        </mxCell>
        <mxCell id="DhFb5XIWoU-6fm3A12WK-30" value="101" style="rounded=0;whiteSpace=wrap;html=1;" parent="1" vertex="1">
          <mxGeometry x="120" y="190" width="40" height="20" as="geometry" />
        </mxCell>
        <mxCell id="DhFb5XIWoU-6fm3A12WK-31" value="102" style="rounded=0;whiteSpace=wrap;html=1;" parent="1" vertex="1">
          <mxGeometry x="160" y="190" width="40" height="20" as="geometry" />
        </mxCell>
        <mxCell id="DhFb5XIWoU-6fm3A12WK-32" value="103" style="rounded=0;whiteSpace=wrap;html=1;" parent="1" vertex="1">
          <mxGeometry x="200" y="190" width="40" height="20" as="geometry" />
        </mxCell>
        <mxCell id="DhFb5XIWoU-6fm3A12WK-33" value="104" style="rounded=0;whiteSpace=wrap;html=1;" parent="1" vertex="1">
          <mxGeometry x="240" y="190" width="40" height="20" as="geometry" />
        </mxCell>
        <mxCell id="DhFb5XIWoU-6fm3A12WK-34" value="105" style="rounded=0;whiteSpace=wrap;html=1;" parent="1" vertex="1">
          <mxGeometry x="280" y="190" width="40" height="20" as="geometry" />
        </mxCell>
        <mxCell id="DhFb5XIWoU-6fm3A12WK-35" value="103" style="rounded=0;whiteSpace=wrap;html=1;" parent="1" vertex="1">
          <mxGeometry x="220" y="230" width="180" height="20" as="geometry" />
        </mxCell>
        <mxCell id="DhFb5XIWoU-6fm3A12WK-36" value="NaN" style="rounded=0;whiteSpace=wrap;html=1;" parent="1" vertex="1">
          <mxGeometry x="80" y="230" width="140" height="20" as="geometry" />
        </mxCell>
        <mxCell id="DhFb5XIWoU-6fm3A12WK-37" value="" style="endArrow=classic;html=1;rounded=0;" parent="1" edge="1">
          <mxGeometry width="50" height="50" relative="1" as="geometry">
            <mxPoint x="220" y="280" as="sourcePoint" />
            <mxPoint x="220" y="250" as="targetPoint" />
          </mxGeometry>
        </mxCell>
        <mxCell id="DhFb5XIWoU-6fm3A12WK-39" value="0" style="rounded=0;whiteSpace=wrap;html=1;" parent="1" vertex="1">
          <mxGeometry x="320" y="190" width="40" height="20" as="geometry" />
        </mxCell>
        <mxCell id="DhFb5XIWoU-6fm3A12WK-40" value="1" style="rounded=0;whiteSpace=wrap;html=1;" parent="1" vertex="1">
          <mxGeometry x="360" y="190" width="40" height="20" as="geometry" />
        </mxCell>
        <mxCell id="DhFb5XIWoU-6fm3A12WK-41" value="" style="pointerEvents=1;verticalLabelPosition=bottom;shadow=0;dashed=0;align=center;html=1;verticalAlign=top;shape=mxgraph.electrical.waveforms.square_wave;" parent="1" vertex="1">
          <mxGeometry x="320" y="150" width="40" height="20" as="geometry" />
        </mxCell>
        <mxCell id="DhFb5XIWoU-6fm3A12WK-42" value="" style="pointerEvents=1;verticalLabelPosition=bottom;shadow=0;dashed=0;align=center;html=1;verticalAlign=top;shape=mxgraph.electrical.waveforms.square_wave;" parent="1" vertex="1">
          <mxGeometry x="360" y="150" width="40" height="20" as="geometry" />
        </mxCell>
        <mxCell id="DhFb5XIWoU-6fm3A12WK-43" value="" style="pointerEvents=1;verticalLabelPosition=bottom;shadow=0;dashed=0;align=center;html=1;verticalAlign=top;shape=mxgraph.electrical.waveforms.square_wave;" parent="1" vertex="1">
          <mxGeometry x="320" y="120" width="20" height="20" as="geometry" />
        </mxCell>
        <mxCell id="DhFb5XIWoU-6fm3A12WK-44" value="" style="pointerEvents=1;verticalLabelPosition=bottom;shadow=0;dashed=0;align=center;html=1;verticalAlign=top;shape=mxgraph.electrical.waveforms.square_wave;" parent="1" vertex="1">
          <mxGeometry x="340" y="120" width="20" height="20" as="geometry" />
        </mxCell>
        <mxCell id="DhFb5XIWoU-6fm3A12WK-45" value="" style="pointerEvents=1;verticalLabelPosition=bottom;shadow=0;dashed=0;align=center;html=1;verticalAlign=top;shape=mxgraph.electrical.waveforms.square_wave;" parent="1" vertex="1">
          <mxGeometry x="360" y="120" width="20" height="20" as="geometry" />
        </mxCell>
        <mxCell id="DhFb5XIWoU-6fm3A12WK-46" value="" style="pointerEvents=1;verticalLabelPosition=bottom;shadow=0;dashed=0;align=center;html=1;verticalAlign=top;shape=mxgraph.electrical.waveforms.square_wave;" parent="1" vertex="1">
          <mxGeometry x="380" y="120" width="20" height="20" as="geometry" />
        </mxCell>
        <mxCell id="DhFb5XIWoU-6fm3A12WK-47" value="" style="endArrow=classic;html=1;rounded=0;" parent="1" edge="1">
          <mxGeometry width="50" height="50" relative="1" as="geometry">
            <mxPoint x="320" y="260" as="sourcePoint" />
            <mxPoint x="320" y="280" as="targetPoint" />
          </mxGeometry>
        </mxCell>
        <mxCell id="DhFb5XIWoU-6fm3A12WK-49" value="" style="endArrow=none;html=1;rounded=0;" parent="1" edge="1">
          <mxGeometry width="50" height="50" relative="1" as="geometry">
            <mxPoint x="80" y="300" as="sourcePoint" />
            <mxPoint x="320" y="300" as="targetPoint" />
          </mxGeometry>
        </mxCell>
        <mxCell id="DhFb5XIWoU-6fm3A12WK-50" value="" style="endArrow=none;html=1;rounded=0;" parent="1" edge="1">
          <mxGeometry width="50" height="50" relative="1" as="geometry">
            <mxPoint x="320" y="280" as="sourcePoint" />
            <mxPoint x="400" y="280" as="targetPoint" />
          </mxGeometry>
        </mxCell>
        <mxCell id="DhFb5XIWoU-6fm3A12WK-51" value="" style="endArrow=none;html=1;rounded=0;" parent="1" edge="1">
          <mxGeometry width="50" height="50" relative="1" as="geometry">
            <mxPoint x="320" y="300" as="sourcePoint" />
            <mxPoint x="320" y="280" as="targetPoint" />
          </mxGeometry>
        </mxCell>
        <mxCell id="DhFb5XIWoU-6fm3A12WK-53" value="&lt;ul&gt;&lt;li&gt;时钟源&lt;/li&gt;&lt;li&gt;时钟分频&lt;/li&gt;&lt;/ul&gt;" style="text;strokeColor=none;fillColor=none;html=1;whiteSpace=wrap;verticalAlign=middle;overflow=hidden;" parent="1" vertex="1">
          <mxGeometry x="400" y="120" width="100" height="50" as="geometry" />
        </mxCell>
        <mxCell id="DhFb5XIWoU-6fm3A12WK-54" value="&lt;ul&gt;&lt;li&gt;计数使能&lt;/li&gt;&lt;li&gt;计数方向&lt;/li&gt;&lt;li&gt;计数阈值&lt;/li&gt;&lt;li&gt;计数清除方式&lt;/li&gt;&lt;li&gt;计数复位&lt;/li&gt;&lt;/ul&gt;" style="text;strokeColor=none;fillColor=none;html=1;whiteSpace=wrap;verticalAlign=middle;overflow=hidden;" parent="1" vertex="1">
          <mxGeometry x="400" y="166" width="160" height="100" as="geometry" />
        </mxCell>
        <mxCell id="DhFb5XIWoU-6fm3A12WK-55" value="&lt;ul&gt;&lt;li&gt;计数采样&lt;/li&gt;&lt;li&gt;溢出上报&lt;/li&gt;&lt;/ul&gt;" style="text;strokeColor=none;fillColor=none;html=1;whiteSpace=wrap;verticalAlign=middle;overflow=hidden;" parent="1" vertex="1">
          <mxGeometry x="400" y="240" width="160" height="100" as="geometry" />
        </mxCell>
        <mxCell id="DhFb5XIWoU-6fm3A12WK-74" value="{&#xa;    &quot;signal&quot;: [&#xa;        { &#xa;            &quot;name&quot;: &quot;CK_PSC&quot;, &#xa;            &quot;wave&quot;: &quot;n................&quot;, &#xa;            &quot;period&quot;: 1, &#xa;            &quot;node&quot;: &quot;.......&quot;&#xa;        },&#xa;        { &#xa;            &quot;name&quot;: &quot;CNT_EN&quot;, &#xa;            &quot;wave&quot;: &quot;01...............&quot;, &#xa;            &quot;node&quot;: &quot;.a..............&quot;,&#xa;            &quot;note&quot;: &quot;a:使能拉高，开始计数&quot;&#xa;        },&#xa;        { &#xa;            &quot;name&quot;: &quot;定时器时钟=CK_CNT&quot;, &#xa;            &quot;wave&quot;: &quot;0ppppppp.&quot;, &#xa;            &quot;period&quot;: 2, &#xa;            &quot;note&quot;: &quot;b:使能后，CK_CNT 随 CK_PSC 分频输出&quot;&#xa;        },&#xa;        { &#xa;            &quot;name&quot;: &quot;计数器寄存器&quot;, &#xa;            &quot;wave&quot;: &quot;x.3=3=3=3=3=3=3=3&quot;, &#xa;            &quot;data&quot;: [&quot;31&quot;,&quot;32&quot;,&quot;33&quot;,&quot;34&quot;,&quot;35&quot;,&quot;36&quot;,&quot;00&quot;,&quot;01&quot;,&quot;02&quot;,&quot;03&quot;,&quot;04&quot;,&quot;05&quot;,&quot;06&quot;,&quot;07&quot;],&#xa;            &quot;note&quot;: &quot;c:计数阶段(31→36)；d:溢出后循环(00→07)&quot;&#xa;        },&#xa;        { &#xa;            &quot;name&quot;: &quot;计数器溢出&quot;, &#xa;            &quot;wave&quot;: &quot;0.......10.......&quot;, &#xa;            &quot;period&quot;: 1, &#xa;            &quot;note&quot;: &quot;e:36→00 时触发溢出&quot;&#xa;        },&#xa;        { &#xa;            &quot;name&quot;: &quot;更新事件(UEV)&quot;, &#xa;            &quot;wave&quot;: &quot;0.......10.......&quot;, &#xa;            &quot;period&quot;: 1, &#xa;            &quot;note&quot;: &quot;f:与溢出同步，生成更新事件&quot;&#xa;        },&#xa;        { &#xa;            &quot;name&quot;: &quot;更新中断标志(UIF)&quot;, &#xa;            &quot;wave&quot;: &quot;0.......1........&quot;, &#xa;            &quot;period&quot;: 1, &#xa;            &quot;note&quot;: &quot;g:与 UEV 同步，标志置位&quot;&#xa;        }&#xa;    ],&#xa;    &quot;caption&quot;: &quot;定时器向上模式溢出时序图（优化版）&quot;,&#xa;    &quot;tick&quot;: 1&#xa;}" style="shadow=0;dashed=0;align=left;strokeWidth=1;labelBackgroundColor=#ffffff;noLabel=1;shape=mxgraph.wavedrom.abstract.timing;" parent="1" vertex="1">
          <mxGeometry x="70" y="340" width="420" height="150" as="geometry" />
        </mxCell>
        <mxCell id="Gsm_PaRMxnJgc2hKJ1Mj-3" value="wavedrom示例" style="swimlane;whiteSpace=wrap;html=1;" parent="1" vertex="1" collapsed="1">
          <mxGeometry x="110" y="500" width="140" height="30" as="geometry">
            <mxRectangle x="110" y="500" width="706" height="1140" as="alternateBounds" />
          </mxGeometry>
        </mxCell>
        <mxCell id="Gsm_PaRMxnJgc2hKJ1Mj-4" value="&lt;span style=&quot;text-align: left; background-color: rgb(255, 255, 255);&quot;&gt;{&lt;/span&gt;&lt;br style=&quot;padding: 0px; margin: 0px; text-align: left;&quot;&gt;&lt;span style=&quot;text-align: left; background-color: rgb(255, 255, 255);&quot;&gt;&amp;nbsp; &amp;nbsp; &quot;signal&quot;: [&lt;/span&gt;&lt;br style=&quot;padding: 0px; margin: 0px; text-align: left;&quot;&gt;&lt;span style=&quot;text-align: left; background-color: rgb(255, 255, 255);&quot;&gt;&amp;nbsp; &amp;nbsp; &amp;nbsp; &amp;nbsp; {&amp;nbsp;&lt;/span&gt;&lt;br style=&quot;padding: 0px; margin: 0px; text-align: left;&quot;&gt;&lt;span style=&quot;text-align: left; background-color: rgb(255, 255, 255);&quot;&gt;&amp;nbsp; &amp;nbsp; &amp;nbsp; &amp;nbsp; &amp;nbsp; &amp;nbsp; &quot;name&quot;: &quot;CK_PSC&quot;,&amp;nbsp;&lt;/span&gt;&lt;br style=&quot;padding: 0px; margin: 0px; text-align: left;&quot;&gt;&lt;span style=&quot;text-align: left; background-color: rgb(255, 255, 255);&quot;&gt;&amp;nbsp; &amp;nbsp; &amp;nbsp; &amp;nbsp; &amp;nbsp; &amp;nbsp; &quot;wave&quot;: &quot;n................&quot;,&amp;nbsp;&lt;/span&gt;&lt;br style=&quot;padding: 0px; margin: 0px; text-align: left;&quot;&gt;&lt;span style=&quot;text-align: left; background-color: rgb(255, 255, 255);&quot;&gt;&amp;nbsp; &amp;nbsp; &amp;nbsp; &amp;nbsp; &amp;nbsp; &amp;nbsp; &quot;period&quot;: 1,&amp;nbsp;&lt;/span&gt;&lt;br style=&quot;padding: 0px; margin: 0px; text-align: left;&quot;&gt;&lt;span style=&quot;text-align: left; background-color: rgb(255, 255, 255);&quot;&gt;&amp;nbsp; &amp;nbsp; &amp;nbsp; &amp;nbsp; &amp;nbsp; &amp;nbsp; &quot;node&quot;: &quot;.......&quot;&lt;/span&gt;&lt;br style=&quot;padding: 0px; margin: 0px; text-align: left;&quot;&gt;&lt;span style=&quot;text-align: left; background-color: rgb(255, 255, 255);&quot;&gt;&amp;nbsp; &amp;nbsp; &amp;nbsp; &amp;nbsp; },&lt;/span&gt;&lt;br style=&quot;padding: 0px; margin: 0px; text-align: left;&quot;&gt;&lt;span style=&quot;text-align: left; background-color: rgb(255, 255, 255);&quot;&gt;&amp;nbsp; &amp;nbsp; &amp;nbsp; &amp;nbsp; {&amp;nbsp;&lt;/span&gt;&lt;br style=&quot;padding: 0px; margin: 0px; text-align: left;&quot;&gt;&lt;span style=&quot;text-align: left; background-color: rgb(255, 255, 255);&quot;&gt;&amp;nbsp; &amp;nbsp; &amp;nbsp; &amp;nbsp; &amp;nbsp; &amp;nbsp; &quot;name&quot;: &quot;CNT_EN&quot;,&amp;nbsp;&lt;/span&gt;&lt;br style=&quot;padding: 0px; margin: 0px; text-align: left;&quot;&gt;&lt;span style=&quot;text-align: left; background-color: rgb(255, 255, 255);&quot;&gt;&amp;nbsp; &amp;nbsp; &amp;nbsp; &amp;nbsp; &amp;nbsp; &amp;nbsp; &quot;wave&quot;: &quot;01...............&quot;,&amp;nbsp;&lt;/span&gt;&lt;br style=&quot;padding: 0px; margin: 0px; text-align: left;&quot;&gt;&lt;span style=&quot;text-align: left; background-color: rgb(255, 255, 255);&quot;&gt;&amp;nbsp; &amp;nbsp; &amp;nbsp; &amp;nbsp; &amp;nbsp; &amp;nbsp; &quot;node&quot;: &quot;.a..............&quot;,&lt;/span&gt;&lt;br style=&quot;padding: 0px; margin: 0px; text-align: left;&quot;&gt;&lt;span style=&quot;text-align: left; background-color: rgb(255, 255, 255);&quot;&gt;&amp;nbsp; &amp;nbsp; &amp;nbsp; &amp;nbsp; &amp;nbsp; &amp;nbsp; &quot;note&quot;: &quot;a:使能拉高，开始计数&quot;&lt;/span&gt;&lt;br style=&quot;padding: 0px; margin: 0px; text-align: left;&quot;&gt;&lt;span style=&quot;text-align: left; background-color: rgb(255, 255, 255);&quot;&gt;&amp;nbsp; &amp;nbsp; &amp;nbsp; &amp;nbsp; },&lt;/span&gt;&lt;br style=&quot;padding: 0px; margin: 0px; text-align: left;&quot;&gt;&lt;span style=&quot;text-align: left; background-color: rgb(255, 255, 255);&quot;&gt;&amp;nbsp; &amp;nbsp; &amp;nbsp; &amp;nbsp; {&amp;nbsp;&lt;/span&gt;&lt;br style=&quot;padding: 0px; margin: 0px; text-align: left;&quot;&gt;&lt;span style=&quot;text-align: left; background-color: rgb(255, 255, 255);&quot;&gt;&amp;nbsp; &amp;nbsp; &amp;nbsp; &amp;nbsp; &amp;nbsp; &amp;nbsp; &quot;name&quot;: &quot;定时器时钟=CK_CNT&quot;,&amp;nbsp;&lt;/span&gt;&lt;br style=&quot;padding: 0px; margin: 0px; text-align: left;&quot;&gt;&lt;span style=&quot;text-align: left; background-color: rgb(255, 255, 255);&quot;&gt;&amp;nbsp; &amp;nbsp; &amp;nbsp; &amp;nbsp; &amp;nbsp; &amp;nbsp; &quot;wave&quot;: &quot;0ppppppp.&quot;,&amp;nbsp;&lt;/span&gt;&lt;br style=&quot;padding: 0px; margin: 0px; text-align: left;&quot;&gt;&lt;span style=&quot;text-align: left; background-color: rgb(255, 255, 255);&quot;&gt;&amp;nbsp; &amp;nbsp; &amp;nbsp; &amp;nbsp; &amp;nbsp; &amp;nbsp; &quot;period&quot;: 2,&amp;nbsp;&lt;/span&gt;&lt;br style=&quot;padding: 0px; margin: 0px; text-align: left;&quot;&gt;&lt;span style=&quot;text-align: left; background-color: rgb(255, 255, 255);&quot;&gt;&amp;nbsp; &amp;nbsp; &amp;nbsp; &amp;nbsp; &amp;nbsp; &amp;nbsp; &quot;note&quot;: &quot;b:使能后，CK_CNT 随 CK_PSC 分频输出&quot;&lt;/span&gt;&lt;br style=&quot;padding: 0px; margin: 0px; text-align: left;&quot;&gt;&lt;span style=&quot;text-align: left; background-color: rgb(255, 255, 255);&quot;&gt;&amp;nbsp; &amp;nbsp; &amp;nbsp; &amp;nbsp; },&lt;/span&gt;&lt;br style=&quot;padding: 0px; margin: 0px; text-align: left;&quot;&gt;&lt;span style=&quot;text-align: left; background-color: rgb(255, 255, 255);&quot;&gt;&amp;nbsp; &amp;nbsp; &amp;nbsp; &amp;nbsp; {&amp;nbsp;&lt;/span&gt;&lt;br style=&quot;padding: 0px; margin: 0px; text-align: left;&quot;&gt;&lt;span style=&quot;text-align: left; background-color: rgb(255, 255, 255);&quot;&gt;&amp;nbsp; &amp;nbsp; &amp;nbsp; &amp;nbsp; &amp;nbsp; &amp;nbsp; &quot;name&quot;: &quot;计数器寄存器&quot;,&amp;nbsp;&lt;/span&gt;&lt;br style=&quot;padding: 0px; margin: 0px; text-align: left;&quot;&gt;&lt;span style=&quot;text-align: left; background-color: rgb(255, 255, 255);&quot;&gt;&amp;nbsp; &amp;nbsp; &amp;nbsp; &amp;nbsp; &amp;nbsp; &amp;nbsp; &quot;wave&quot;: &quot;x.3=3=3=3=3=3=3=3&quot;,&amp;nbsp;&lt;/span&gt;&lt;br style=&quot;padding: 0px; margin: 0px; text-align: left;&quot;&gt;&lt;span style=&quot;text-align: left; background-color: rgb(255, 255, 255);&quot;&gt;&amp;nbsp; &amp;nbsp; &amp;nbsp; &amp;nbsp; &amp;nbsp; &amp;nbsp; &quot;data&quot;: [&quot;31&quot;,&quot;32&quot;,&quot;33&quot;,&quot;34&quot;,&quot;35&quot;,&quot;36&quot;,&quot;00&quot;,&quot;01&quot;,&quot;02&quot;,&quot;03&quot;,&quot;04&quot;,&quot;05&quot;,&quot;06&quot;,&quot;07&quot;],&lt;/span&gt;&lt;br style=&quot;padding: 0px; margin: 0px; text-align: left;&quot;&gt;&lt;span style=&quot;text-align: left; background-color: rgb(255, 255, 255);&quot;&gt;&amp;nbsp; &amp;nbsp; &amp;nbsp; &amp;nbsp; &amp;nbsp; &amp;nbsp; &quot;note&quot;: &quot;c:计数阶段(31→36)；d:溢出后循环(00→07)&quot;&lt;/span&gt;&lt;br style=&quot;padding: 0px; margin: 0px; text-align: left;&quot;&gt;&lt;span style=&quot;text-align: left; background-color: rgb(255, 255, 255);&quot;&gt;&amp;nbsp; &amp;nbsp; &amp;nbsp; &amp;nbsp; },&lt;/span&gt;&lt;br style=&quot;padding: 0px; margin: 0px; text-align: left;&quot;&gt;&lt;span style=&quot;text-align: left; background-color: rgb(255, 255, 255);&quot;&gt;&amp;nbsp; &amp;nbsp; &amp;nbsp; &amp;nbsp; {&amp;nbsp;&lt;/span&gt;&lt;br style=&quot;padding: 0px; margin: 0px; text-align: left;&quot;&gt;&lt;span style=&quot;text-align: left; background-color: rgb(255, 255, 255);&quot;&gt;&amp;nbsp; &amp;nbsp; &amp;nbsp; &amp;nbsp; &amp;nbsp; &amp;nbsp; &quot;name&quot;: &quot;计数器溢出&quot;,&amp;nbsp;&lt;/span&gt;&lt;br style=&quot;padding: 0px; margin: 0px; text-align: left;&quot;&gt;&lt;span style=&quot;text-align: left; background-color: rgb(255, 255, 255);&quot;&gt;&amp;nbsp; &amp;nbsp; &amp;nbsp; &amp;nbsp; &amp;nbsp; &amp;nbsp; &quot;wave&quot;: &quot;0.......10.......&quot;,&amp;nbsp;&lt;/span&gt;&lt;br style=&quot;padding: 0px; margin: 0px; text-align: left;&quot;&gt;&lt;span style=&quot;text-align: left; background-color: rgb(255, 255, 255);&quot;&gt;&amp;nbsp; &amp;nbsp; &amp;nbsp; &amp;nbsp; &amp;nbsp; &amp;nbsp; &quot;period&quot;: 1,&amp;nbsp;&lt;/span&gt;&lt;br style=&quot;padding: 0px; margin: 0px; text-align: left;&quot;&gt;&lt;span style=&quot;text-align: left; background-color: rgb(255, 255, 255);&quot;&gt;&amp;nbsp; &amp;nbsp; &amp;nbsp; &amp;nbsp; &amp;nbsp; &amp;nbsp; &quot;note&quot;: &quot;e:36→00 时触发溢出&quot;&lt;/span&gt;&lt;br style=&quot;padding: 0px; margin: 0px; text-align: left;&quot;&gt;&lt;span style=&quot;text-align: left; background-color: rgb(255, 255, 255);&quot;&gt;&amp;nbsp; &amp;nbsp; &amp;nbsp; &amp;nbsp; },&lt;/span&gt;&lt;br style=&quot;padding: 0px; margin: 0px; text-align: left;&quot;&gt;&lt;span style=&quot;text-align: left; background-color: rgb(255, 255, 255);&quot;&gt;&amp;nbsp; &amp;nbsp; &amp;nbsp; &amp;nbsp; {&amp;nbsp;&lt;/span&gt;&lt;br style=&quot;padding: 0px; margin: 0px; text-align: left;&quot;&gt;&lt;span style=&quot;text-align: left; background-color: rgb(255, 255, 255);&quot;&gt;&amp;nbsp; &amp;nbsp; &amp;nbsp; &amp;nbsp; &amp;nbsp; &amp;nbsp; &quot;name&quot;: &quot;更新事件(UEV)&quot;,&amp;nbsp;&lt;/span&gt;&lt;br style=&quot;padding: 0px; margin: 0px; text-align: left;&quot;&gt;&lt;span style=&quot;text-align: left; background-color: rgb(255, 255, 255);&quot;&gt;&amp;nbsp; &amp;nbsp; &amp;nbsp; &amp;nbsp; &amp;nbsp; &amp;nbsp; &quot;wave&quot;: &quot;0.......10.......&quot;,&amp;nbsp;&lt;/span&gt;&lt;br style=&quot;padding: 0px; margin: 0px; text-align: left;&quot;&gt;&lt;span style=&quot;text-align: left; background-color: rgb(255, 255, 255);&quot;&gt;&amp;nbsp; &amp;nbsp; &amp;nbsp; &amp;nbsp; &amp;nbsp; &amp;nbsp; &quot;period&quot;: 1,&amp;nbsp;&lt;/span&gt;&lt;br style=&quot;padding: 0px; margin: 0px; text-align: left;&quot;&gt;&lt;span style=&quot;text-align: left; background-color: rgb(255, 255, 255);&quot;&gt;&amp;nbsp; &amp;nbsp; &amp;nbsp; &amp;nbsp; &amp;nbsp; &amp;nbsp; &quot;note&quot;: &quot;f:与溢出同步，生成更新事件&quot;&lt;/span&gt;&lt;br style=&quot;padding: 0px; margin: 0px; text-align: left;&quot;&gt;&lt;span style=&quot;text-align: left; background-color: rgb(255, 255, 255);&quot;&gt;&amp;nbsp; &amp;nbsp; &amp;nbsp; &amp;nbsp; },&lt;/span&gt;&lt;br style=&quot;padding: 0px; margin: 0px; text-align: left;&quot;&gt;&lt;span style=&quot;text-align: left; background-color: rgb(255, 255, 255);&quot;&gt;&amp;nbsp; &amp;nbsp; &amp;nbsp; &amp;nbsp; {&amp;nbsp;&lt;/span&gt;&lt;br style=&quot;padding: 0px; margin: 0px; text-align: left;&quot;&gt;&lt;span style=&quot;text-align: left; background-color: rgb(255, 255, 255);&quot;&gt;&amp;nbsp; &amp;nbsp; &amp;nbsp; &amp;nbsp; &amp;nbsp; &amp;nbsp; &quot;name&quot;: &quot;更新中断标志(UIF)&quot;,&amp;nbsp;&lt;/span&gt;&lt;br style=&quot;padding: 0px; margin: 0px; text-align: left;&quot;&gt;&lt;span style=&quot;text-align: left; background-color: rgb(255, 255, 255);&quot;&gt;&amp;nbsp; &amp;nbsp; &amp;nbsp; &amp;nbsp; &amp;nbsp; &amp;nbsp; &quot;wave&quot;: &quot;0.......1........&quot;,&amp;nbsp;&lt;/span&gt;&lt;br style=&quot;padding: 0px; margin: 0px; text-align: left;&quot;&gt;&lt;span style=&quot;text-align: left; background-color: rgb(255, 255, 255);&quot;&gt;&amp;nbsp; &amp;nbsp; &amp;nbsp; &amp;nbsp; &amp;nbsp; &amp;nbsp; &quot;period&quot;: 1,&amp;nbsp;&lt;/span&gt;&lt;br style=&quot;padding: 0px; margin: 0px; text-align: left;&quot;&gt;&lt;span style=&quot;text-align: left; background-color: rgb(255, 255, 255);&quot;&gt;&amp;nbsp; &amp;nbsp; &amp;nbsp; &amp;nbsp; &amp;nbsp; &amp;nbsp; &quot;note&quot;: &quot;g:与 UEV 同步，标志置位&quot;&lt;/span&gt;&lt;br style=&quot;padding: 0px; margin: 0px; text-align: left;&quot;&gt;&lt;span style=&quot;text-align: left; background-color: rgb(255, 255, 255);&quot;&gt;&amp;nbsp; &amp;nbsp; &amp;nbsp; &amp;nbsp; }&lt;/span&gt;&lt;br style=&quot;padding: 0px; margin: 0px; text-align: left;&quot;&gt;&lt;span style=&quot;text-align: left; background-color: rgb(255, 255, 255);&quot;&gt;&amp;nbsp; &amp;nbsp; ],&lt;/span&gt;&lt;br style=&quot;padding: 0px; margin: 0px; text-align: left;&quot;&gt;&lt;span style=&quot;text-align: left; background-color: rgb(255, 255, 255);&quot;&gt;&amp;nbsp; &amp;nbsp; &quot;caption&quot;: &quot;定时器向上模式溢出时序图（优化版）&quot;,&lt;/span&gt;&lt;br style=&quot;padding: 0px; margin: 0px; text-align: left;&quot;&gt;&lt;span style=&quot;text-align: left; background-color: rgb(255, 255, 255);&quot;&gt;&amp;nbsp; &amp;nbsp; &quot;tick&quot;: 1&lt;/span&gt;&lt;br style=&quot;padding: 0px; margin: 0px; text-align: left;&quot;&gt;&lt;span style=&quot;text-align: left; background-color: rgb(255, 255, 255);&quot;&gt;}&lt;/span&gt;" style="text;html=1;align=center;verticalAlign=middle;resizable=0;points=[];autosize=1;strokeColor=none;fillColor=none;" parent="Gsm_PaRMxnJgc2hKJ1Mj-3" vertex="1">
          <mxGeometry x="116" y="60" width="460" height="700" as="geometry" />
        </mxCell>
      </root>
    </mxGraphModel>
  </diagram>
  <diagram id="H9ynILHKJEM6k-JNddJZ" name="计数与采样">
    <mxGraphModel dx="983" dy="523" grid="1" gridSize="10" guides="1" tooltips="1" connect="1" arrows="1" fold="1" page="1" pageScale="1" pageWidth="827" pageHeight="1169" math="0" shadow="0">
      <root>
        <mxCell id="0" />
        <mxCell id="1" parent="0" />
        <mxCell id="h7d7KQx7B3C2yVi_9Bmd-89" value="" style="rounded=1;whiteSpace=wrap;html=1;" vertex="1" parent="1">
          <mxGeometry x="221" y="460" width="260" height="60" as="geometry" />
        </mxCell>
        <mxCell id="ZbTEH7Ulr-kMgXrNNoui-2" value="" style="rounded=0;whiteSpace=wrap;html=1;fillColor=#f5f5f5;fontColor=#333333;strokeColor=#666666;" parent="1" vertex="1">
          <mxGeometry x="160" y="80" width="40" height="20" as="geometry" />
        </mxCell>
        <mxCell id="ZbTEH7Ulr-kMgXrNNoui-3" value="t1" style="rounded=0;whiteSpace=wrap;html=1;fillColor=#d5e8d4;strokeColor=#82b366;" parent="1" vertex="1">
          <mxGeometry x="200" y="80" width="40" height="20" as="geometry" />
        </mxCell>
        <mxCell id="h7d7KQx7B3C2yVi_9Bmd-1" value="d1" style="rounded=0;whiteSpace=wrap;html=1;fillColor=#fff2cc;strokeColor=#d6b656;" vertex="1" parent="1">
          <mxGeometry x="240" y="80" width="40" height="20" as="geometry" />
        </mxCell>
        <mxCell id="h7d7KQx7B3C2yVi_9Bmd-2" value="" style="rounded=0;whiteSpace=wrap;html=1;fillColor=#f5f5f5;fontColor=#333333;strokeColor=#666666;" vertex="1" parent="1">
          <mxGeometry x="280" y="80" width="120" height="20" as="geometry" />
        </mxCell>
        <mxCell id="h7d7KQx7B3C2yVi_9Bmd-3" value="t2" style="rounded=0;whiteSpace=wrap;html=1;fillColor=#d5e8d4;strokeColor=#82b366;" vertex="1" parent="1">
          <mxGeometry x="400" y="80" width="40" height="20" as="geometry" />
        </mxCell>
        <mxCell id="h7d7KQx7B3C2yVi_9Bmd-4" value="d2" style="rounded=0;whiteSpace=wrap;html=1;fillColor=#fff2cc;strokeColor=#d6b656;" vertex="1" parent="1">
          <mxGeometry x="440" y="80" width="40" height="20" as="geometry" />
        </mxCell>
        <mxCell id="h7d7KQx7B3C2yVi_9Bmd-5" value="" style="rounded=0;whiteSpace=wrap;html=1;fillColor=#f5f5f5;fontColor=#333333;strokeColor=#666666;" vertex="1" parent="1">
          <mxGeometry x="480" y="80" width="120" height="20" as="geometry" />
        </mxCell>
        <mxCell id="h7d7KQx7B3C2yVi_9Bmd-6" value="t3" style="rounded=0;whiteSpace=wrap;html=1;fillColor=#d5e8d4;strokeColor=#82b366;" vertex="1" parent="1">
          <mxGeometry x="600" y="80" width="40" height="20" as="geometry" />
        </mxCell>
        <mxCell id="h7d7KQx7B3C2yVi_9Bmd-7" value="d3" style="rounded=0;whiteSpace=wrap;html=1;fillColor=#fff2cc;strokeColor=#d6b656;" vertex="1" parent="1">
          <mxGeometry x="640" y="80" width="40" height="20" as="geometry" />
        </mxCell>
        <mxCell id="h7d7KQx7B3C2yVi_9Bmd-8" value="" style="endArrow=classic;html=1;rounded=0;" edge="1" parent="1">
          <mxGeometry width="50" height="50" relative="1" as="geometry">
            <mxPoint x="200" y="49" as="sourcePoint" />
            <mxPoint x="200" y="79" as="targetPoint" />
          </mxGeometry>
        </mxCell>
        <mxCell id="h7d7KQx7B3C2yVi_9Bmd-9" value="" style="endArrow=classic;html=1;rounded=0;" edge="1" parent="1">
          <mxGeometry width="50" height="50" relative="1" as="geometry">
            <mxPoint x="400" y="50" as="sourcePoint" />
            <mxPoint x="400" y="80" as="targetPoint" />
          </mxGeometry>
        </mxCell>
        <mxCell id="h7d7KQx7B3C2yVi_9Bmd-10" value="" style="endArrow=classic;html=1;rounded=0;" edge="1" parent="1">
          <mxGeometry width="50" height="50" relative="1" as="geometry">
            <mxPoint x="600" y="50" as="sourcePoint" />
            <mxPoint x="600" y="80" as="targetPoint" />
          </mxGeometry>
        </mxCell>
        <mxCell id="h7d7KQx7B3C2yVi_9Bmd-11" value="" style="endArrow=classic;html=1;rounded=0;" edge="1" parent="1">
          <mxGeometry width="50" height="50" relative="1" as="geometry">
            <mxPoint x="200" y="280" as="sourcePoint" />
            <mxPoint x="440" y="281.24" as="targetPoint" />
          </mxGeometry>
        </mxCell>
        <mxCell id="h7d7KQx7B3C2yVi_9Bmd-12" value="" style="endArrow=classic;html=1;rounded=0;" edge="1" parent="1">
          <mxGeometry width="50" height="50" relative="1" as="geometry">
            <mxPoint x="200" y="280" as="sourcePoint" />
            <mxPoint x="200" y="160" as="targetPoint" />
          </mxGeometry>
        </mxCell>
        <mxCell id="h7d7KQx7B3C2yVi_9Bmd-13" value="" style="endArrow=classic;startArrow=classic;html=1;rounded=0;strokeWidth=1;dashed=1;startSize=1;endSize=1;" edge="1" parent="1">
          <mxGeometry width="50" height="50" relative="1" as="geometry">
            <mxPoint x="200" y="60" as="sourcePoint" />
            <mxPoint x="400" y="60" as="targetPoint" />
          </mxGeometry>
        </mxCell>
        <mxCell id="h7d7KQx7B3C2yVi_9Bmd-14" value="t2" style="edgeLabel;html=1;align=center;verticalAlign=middle;resizable=0;points=[];" vertex="1" connectable="0" parent="h7d7KQx7B3C2yVi_9Bmd-13">
          <mxGeometry x="-0.009" y="2" relative="1" as="geometry">
            <mxPoint y="2" as="offset" />
          </mxGeometry>
        </mxCell>
        <mxCell id="h7d7KQx7B3C2yVi_9Bmd-18" value="" style="endArrow=classic;startArrow=classic;html=1;rounded=0;strokeWidth=1;dashed=1;startSize=1;endSize=1;" edge="1" parent="1">
          <mxGeometry width="50" height="50" relative="1" as="geometry">
            <mxPoint x="400" y="60" as="sourcePoint" />
            <mxPoint x="600" y="60" as="targetPoint" />
          </mxGeometry>
        </mxCell>
        <mxCell id="h7d7KQx7B3C2yVi_9Bmd-19" value="t3" style="edgeLabel;html=1;align=center;verticalAlign=middle;resizable=0;points=[];" vertex="1" connectable="0" parent="h7d7KQx7B3C2yVi_9Bmd-18">
          <mxGeometry x="-0.009" y="2" relative="1" as="geometry">
            <mxPoint y="2" as="offset" />
          </mxGeometry>
        </mxCell>
        <mxCell id="h7d7KQx7B3C2yVi_9Bmd-21" value="" style="shape=waypoint;sketch=0;fillStyle=solid;size=6;pointerEvents=1;points=[];fillColor=none;resizable=0;rotatable=0;perimeter=centerPerimeter;snapToPoint=1;strokeWidth=0;" vertex="1" parent="1">
          <mxGeometry x="230" y="231.24" width="20" height="20" as="geometry" />
        </mxCell>
        <mxCell id="h7d7KQx7B3C2yVi_9Bmd-23" value="" style="shape=waypoint;sketch=0;fillStyle=solid;size=6;pointerEvents=1;points=[];fillColor=none;resizable=0;rotatable=0;perimeter=centerPerimeter;snapToPoint=1;strokeWidth=0;" vertex="1" parent="1">
          <mxGeometry x="270" y="199.24" width="20" height="20" as="geometry" />
        </mxCell>
        <mxCell id="h7d7KQx7B3C2yVi_9Bmd-24" value="" style="shape=waypoint;sketch=0;fillStyle=solid;size=6;pointerEvents=1;points=[];fillColor=none;resizable=0;rotatable=0;perimeter=centerPerimeter;snapToPoint=1;strokeWidth=0;" vertex="1" parent="1">
          <mxGeometry x="310" y="171.24" width="20" height="20" as="geometry" />
        </mxCell>
        <mxCell id="h7d7KQx7B3C2yVi_9Bmd-25" value="" style="shape=waypoint;sketch=0;fillStyle=solid;size=6;pointerEvents=1;points=[];fillColor=none;resizable=0;rotatable=0;perimeter=centerPerimeter;snapToPoint=1;strokeWidth=0;" vertex="1" parent="1">
          <mxGeometry x="350" y="208.24" width="20" height="20" as="geometry" />
        </mxCell>
        <mxCell id="h7d7KQx7B3C2yVi_9Bmd-26" value="" style="shape=waypoint;sketch=0;fillStyle=solid;size=6;pointerEvents=1;points=[];fillColor=none;resizable=0;rotatable=0;perimeter=centerPerimeter;snapToPoint=1;strokeWidth=0;" vertex="1" parent="1">
          <mxGeometry x="390" y="241.24" width="20" height="20" as="geometry" />
        </mxCell>
        <mxCell id="h7d7KQx7B3C2yVi_9Bmd-28" value="" style="endArrow=none;html=1;rounded=0;entryX=0.399;entryY=0.424;entryDx=0;entryDy=0;entryPerimeter=0;curved=1;dashed=1;" edge="1" parent="1">
          <mxGeometry width="50" height="50" relative="1" as="geometry">
            <mxPoint x="240" y="241.24" as="sourcePoint" />
            <mxPoint x="400" y="251.24" as="targetPoint" />
            <Array as="points">
              <mxPoint x="280" y="211.24" />
              <mxPoint x="320" y="171.24" />
              <mxPoint x="360" y="221.24" />
            </Array>
          </mxGeometry>
        </mxCell>
        <mxCell id="h7d7KQx7B3C2yVi_9Bmd-30" value="t1" style="edgeLabel;html=1;align=center;verticalAlign=middle;resizable=0;points=[];" vertex="1" connectable="0" parent="h7d7KQx7B3C2yVi_9Bmd-28">
          <mxGeometry x="-0.7485" relative="1" as="geometry">
            <mxPoint as="offset" />
          </mxGeometry>
        </mxCell>
        <mxCell id="h7d7KQx7B3C2yVi_9Bmd-31" value="t2" style="edgeLabel;html=1;align=center;verticalAlign=middle;resizable=0;points=[];" vertex="1" connectable="0" parent="h7d7KQx7B3C2yVi_9Bmd-28">
          <mxGeometry x="-0.2802" y="1" relative="1" as="geometry">
            <mxPoint as="offset" />
          </mxGeometry>
        </mxCell>
        <mxCell id="h7d7KQx7B3C2yVi_9Bmd-32" value="t3" style="edgeLabel;html=1;align=center;verticalAlign=middle;resizable=0;points=[];" vertex="1" connectable="0" parent="h7d7KQx7B3C2yVi_9Bmd-28">
          <mxGeometry x="0.2727" y="2" relative="1" as="geometry">
            <mxPoint y="2" as="offset" />
          </mxGeometry>
        </mxCell>
        <mxCell id="h7d7KQx7B3C2yVi_9Bmd-33" value="t4" style="edgeLabel;html=1;align=center;verticalAlign=middle;resizable=0;points=[];" vertex="1" connectable="0" parent="h7d7KQx7B3C2yVi_9Bmd-28">
          <mxGeometry x="0.7503" relative="1" as="geometry">
            <mxPoint as="offset" />
          </mxGeometry>
        </mxCell>
        <mxCell id="h7d7KQx7B3C2yVi_9Bmd-34" value="抽象模型：外部触发计数器采样+计数值上报" style="text;strokeColor=none;align=left;fillColor=none;html=1;verticalAlign=middle;whiteSpace=wrap;rounded=0;" vertex="1" parent="1">
          <mxGeometry x="480" y="208.24" width="290" height="30" as="geometry" />
        </mxCell>
        <mxCell id="h7d7KQx7B3C2yVi_9Bmd-35" value="&lt;div align=&quot;left&quot;&gt;时间戳：定义两组数据之间的时间差&lt;/div&gt;" style="text;strokeColor=none;align=left;fillColor=none;html=1;verticalAlign=middle;whiteSpace=wrap;rounded=0;" vertex="1" parent="1">
          <mxGeometry x="480" y="236.24" width="290" height="30" as="geometry" />
        </mxCell>
        <mxCell id="h7d7KQx7B3C2yVi_9Bmd-36" value="应用意义：数据做插值算法，供数学计算中间均值" style="text;strokeColor=none;align=left;fillColor=none;html=1;verticalAlign=middle;whiteSpace=wrap;rounded=0;" vertex="1" parent="1">
          <mxGeometry x="480" y="261.24" width="290" height="30" as="geometry" />
        </mxCell>
        <mxCell id="h7d7KQx7B3C2yVi_9Bmd-37" value="内部计数" style="rounded=0;whiteSpace=wrap;html=1;" vertex="1" parent="1">
          <mxGeometry x="285" y="340" width="80" height="30" as="geometry" />
        </mxCell>
        <mxCell id="h7d7KQx7B3C2yVi_9Bmd-38" value="虚拟计数模型" style="rounded=0;whiteSpace=wrap;html=1;dashed=1;" vertex="1" parent="1">
          <mxGeometry x="285" y="390" width="80" height="30" as="geometry" />
        </mxCell>
        <mxCell id="h7d7KQx7B3C2yVi_9Bmd-51" value="" style="group" vertex="1" connectable="0" parent="1">
          <mxGeometry x="135" y="350" width="110" height="46" as="geometry" />
        </mxCell>
        <mxCell id="h7d7KQx7B3C2yVi_9Bmd-50" value="" style="rounded=1;whiteSpace=wrap;html=1;" vertex="1" parent="h7d7KQx7B3C2yVi_9Bmd-51">
          <mxGeometry width="110" height="40" as="geometry" />
        </mxCell>
        <mxCell id="h7d7KQx7B3C2yVi_9Bmd-39" value="" style="endArrow=none;html=1;rounded=0;" edge="1" parent="h7d7KQx7B3C2yVi_9Bmd-51">
          <mxGeometry width="50" height="50" relative="1" as="geometry">
            <mxPoint y="20.930000000000007" as="sourcePoint" />
            <mxPoint x="20" y="21" as="targetPoint" />
          </mxGeometry>
        </mxCell>
        <mxCell id="h7d7KQx7B3C2yVi_9Bmd-40" value="" style="endArrow=none;html=1;rounded=0;" edge="1" parent="h7d7KQx7B3C2yVi_9Bmd-51">
          <mxGeometry width="50" height="50" relative="1" as="geometry">
            <mxPoint x="20" y="20.930000000000007" as="sourcePoint" />
            <mxPoint x="20" y="6" as="targetPoint" />
          </mxGeometry>
        </mxCell>
        <mxCell id="h7d7KQx7B3C2yVi_9Bmd-41" value="" style="endArrow=none;html=1;rounded=0;" edge="1" parent="h7d7KQx7B3C2yVi_9Bmd-51">
          <mxGeometry width="50" height="50" relative="1" as="geometry">
            <mxPoint x="30" y="20.930000000000007" as="sourcePoint" />
            <mxPoint x="30" y="6" as="targetPoint" />
          </mxGeometry>
        </mxCell>
        <mxCell id="h7d7KQx7B3C2yVi_9Bmd-42" value="" style="endArrow=none;html=1;rounded=0;" edge="1" parent="h7d7KQx7B3C2yVi_9Bmd-51">
          <mxGeometry width="50" height="50" relative="1" as="geometry">
            <mxPoint x="30" y="20.930000000000007" as="sourcePoint" />
            <mxPoint x="60" y="21" as="targetPoint" />
          </mxGeometry>
        </mxCell>
        <mxCell id="h7d7KQx7B3C2yVi_9Bmd-43" value="" style="endArrow=none;html=1;rounded=0;" edge="1" parent="h7d7KQx7B3C2yVi_9Bmd-51">
          <mxGeometry width="50" height="50" relative="1" as="geometry">
            <mxPoint x="20" y="6" as="sourcePoint" />
            <mxPoint x="30" y="6" as="targetPoint" />
          </mxGeometry>
        </mxCell>
        <mxCell id="h7d7KQx7B3C2yVi_9Bmd-44" value="" style="endArrow=none;html=1;rounded=0;" edge="1" parent="h7d7KQx7B3C2yVi_9Bmd-51">
          <mxGeometry width="50" height="50" relative="1" as="geometry">
            <mxPoint x="60" y="20.930000000000007" as="sourcePoint" />
            <mxPoint x="60" y="6" as="targetPoint" />
          </mxGeometry>
        </mxCell>
        <mxCell id="h7d7KQx7B3C2yVi_9Bmd-45" value="" style="endArrow=none;html=1;rounded=0;" edge="1" parent="h7d7KQx7B3C2yVi_9Bmd-51">
          <mxGeometry width="50" height="50" relative="1" as="geometry">
            <mxPoint x="80" y="20.930000000000007" as="sourcePoint" />
            <mxPoint x="80" y="6" as="targetPoint" />
          </mxGeometry>
        </mxCell>
        <mxCell id="h7d7KQx7B3C2yVi_9Bmd-46" value="" style="endArrow=none;html=1;rounded=0;" edge="1" parent="h7d7KQx7B3C2yVi_9Bmd-51">
          <mxGeometry width="50" height="50" relative="1" as="geometry">
            <mxPoint x="60" y="6" as="sourcePoint" />
            <mxPoint x="80" y="6" as="targetPoint" />
          </mxGeometry>
        </mxCell>
        <mxCell id="h7d7KQx7B3C2yVi_9Bmd-47" value="" style="endArrow=none;html=1;rounded=0;" edge="1" parent="h7d7KQx7B3C2yVi_9Bmd-51">
          <mxGeometry width="50" height="50" relative="1" as="geometry">
            <mxPoint x="80" y="20.930000000000007" as="sourcePoint" />
            <mxPoint x="110" y="21" as="targetPoint" />
          </mxGeometry>
        </mxCell>
        <mxCell id="h7d7KQx7B3C2yVi_9Bmd-48" value="&lt;font style=&quot;font-size: 8px;&quot;&gt;纯随机触发&lt;/font&gt;" style="text;strokeColor=none;align=center;fillColor=none;html=1;verticalAlign=middle;whiteSpace=wrap;rounded=0;" vertex="1" parent="h7d7KQx7B3C2yVi_9Bmd-51">
          <mxGeometry x="20" y="16" width="60" height="30" as="geometry" />
        </mxCell>
        <mxCell id="h7d7KQx7B3C2yVi_9Bmd-52" style="edgeStyle=orthogonalEdgeStyle;rounded=0;orthogonalLoop=1;jettySize=auto;html=1;entryX=0;entryY=0.5;entryDx=0;entryDy=0;" edge="1" parent="1" source="h7d7KQx7B3C2yVi_9Bmd-50" target="h7d7KQx7B3C2yVi_9Bmd-37">
          <mxGeometry relative="1" as="geometry" />
        </mxCell>
        <mxCell id="h7d7KQx7B3C2yVi_9Bmd-53" style="edgeStyle=orthogonalEdgeStyle;rounded=0;orthogonalLoop=1;jettySize=auto;html=1;entryX=0;entryY=0.5;entryDx=0;entryDy=0;" edge="1" parent="1" target="h7d7KQx7B3C2yVi_9Bmd-38">
          <mxGeometry relative="1" as="geometry">
            <mxPoint x="245" y="370" as="sourcePoint" />
            <mxPoint x="295" y="370" as="targetPoint" />
            <Array as="points">
              <mxPoint x="265" y="370" />
              <mxPoint x="265" y="405" />
            </Array>
          </mxGeometry>
        </mxCell>
        <mxCell id="h7d7KQx7B3C2yVi_9Bmd-54" value="t1" style="rounded=1;whiteSpace=wrap;html=1;" vertex="1" parent="1">
          <mxGeometry x="395" y="345" width="50" height="20" as="geometry" />
        </mxCell>
        <mxCell id="h7d7KQx7B3C2yVi_9Bmd-55" value="t2" style="rounded=1;whiteSpace=wrap;html=1;" vertex="1" parent="1">
          <mxGeometry x="445" y="345" width="50" height="20" as="geometry" />
        </mxCell>
        <mxCell id="h7d7KQx7B3C2yVi_9Bmd-56" value="t3" style="rounded=1;whiteSpace=wrap;html=1;" vertex="1" parent="1">
          <mxGeometry x="495" y="345" width="50" height="20" as="geometry" />
        </mxCell>
        <mxCell id="h7d7KQx7B3C2yVi_9Bmd-57" value="t1" style="rounded=1;whiteSpace=wrap;html=1;dashed=1;" vertex="1" parent="1">
          <mxGeometry x="395" y="395" width="50" height="20" as="geometry" />
        </mxCell>
        <mxCell id="h7d7KQx7B3C2yVi_9Bmd-58" value="t2" style="rounded=1;whiteSpace=wrap;html=1;dashed=1;" vertex="1" parent="1">
          <mxGeometry x="445" y="395" width="50" height="20" as="geometry" />
        </mxCell>
        <mxCell id="h7d7KQx7B3C2yVi_9Bmd-59" value="t3" style="rounded=1;whiteSpace=wrap;html=1;dashed=1;" vertex="1" parent="1">
          <mxGeometry x="495" y="395" width="50" height="20" as="geometry" />
        </mxCell>
        <mxCell id="h7d7KQx7B3C2yVi_9Bmd-60" value="虚拟模型试图与代码实现一致，代价非常高" style="text;strokeColor=none;align=center;fillColor=none;html=1;verticalAlign=middle;whiteSpace=wrap;rounded=0;" vertex="1" parent="1">
          <mxGeometry x="595" y="360" width="165" height="30" as="geometry" />
        </mxCell>
        <mxCell id="h7d7KQx7B3C2yVi_9Bmd-63" value="" style="endArrow=none;html=1;rounded=0;" edge="1" parent="1">
          <mxGeometry width="50" height="50" relative="1" as="geometry">
            <mxPoint x="230" y="490.93" as="sourcePoint" />
            <mxPoint x="260.9090909090909" y="491" as="targetPoint" />
          </mxGeometry>
        </mxCell>
        <mxCell id="h7d7KQx7B3C2yVi_9Bmd-64" value="" style="endArrow=none;html=1;rounded=0;" edge="1" parent="1">
          <mxGeometry width="50" height="50" relative="1" as="geometry">
            <mxPoint x="260.9090909090909" y="490.93" as="sourcePoint" />
            <mxPoint x="260.9090909090909" y="476" as="targetPoint" />
          </mxGeometry>
        </mxCell>
        <mxCell id="h7d7KQx7B3C2yVi_9Bmd-65" value="" style="endArrow=none;html=1;rounded=0;" edge="1" parent="1">
          <mxGeometry width="50" height="50" relative="1" as="geometry">
            <mxPoint x="276.3636363636364" y="490.93" as="sourcePoint" />
            <mxPoint x="276.3636363636364" y="476" as="targetPoint" />
          </mxGeometry>
        </mxCell>
        <mxCell id="h7d7KQx7B3C2yVi_9Bmd-66" value="" style="endArrow=none;html=1;rounded=0;" edge="1" parent="1">
          <mxGeometry width="50" height="50" relative="1" as="geometry">
            <mxPoint x="276.3636363636364" y="490.93" as="sourcePoint" />
            <mxPoint x="322.72727272727275" y="491" as="targetPoint" />
          </mxGeometry>
        </mxCell>
        <mxCell id="h7d7KQx7B3C2yVi_9Bmd-67" value="" style="endArrow=none;html=1;rounded=0;" edge="1" parent="1">
          <mxGeometry width="50" height="50" relative="1" as="geometry">
            <mxPoint x="260.9090909090909" y="476" as="sourcePoint" />
            <mxPoint x="276.3636363636364" y="476" as="targetPoint" />
          </mxGeometry>
        </mxCell>
        <mxCell id="h7d7KQx7B3C2yVi_9Bmd-68" value="" style="endArrow=none;html=1;rounded=0;" edge="1" parent="1">
          <mxGeometry width="50" height="50" relative="1" as="geometry">
            <mxPoint x="322.72727272727275" y="490.93" as="sourcePoint" />
            <mxPoint x="322.72727272727275" y="476" as="targetPoint" />
          </mxGeometry>
        </mxCell>
        <mxCell id="h7d7KQx7B3C2yVi_9Bmd-69" value="" style="endArrow=none;html=1;rounded=0;" edge="1" parent="1">
          <mxGeometry width="50" height="50" relative="1" as="geometry">
            <mxPoint x="353.6363636363636" y="490.93" as="sourcePoint" />
            <mxPoint x="353.6363636363636" y="476" as="targetPoint" />
          </mxGeometry>
        </mxCell>
        <mxCell id="h7d7KQx7B3C2yVi_9Bmd-70" value="" style="endArrow=none;html=1;rounded=0;" edge="1" parent="1">
          <mxGeometry width="50" height="50" relative="1" as="geometry">
            <mxPoint x="322.72727272727275" y="476" as="sourcePoint" />
            <mxPoint x="353.6363636363636" y="476" as="targetPoint" />
          </mxGeometry>
        </mxCell>
        <mxCell id="h7d7KQx7B3C2yVi_9Bmd-71" value="" style="endArrow=none;html=1;rounded=0;" edge="1" parent="1">
          <mxGeometry width="50" height="50" relative="1" as="geometry">
            <mxPoint x="353.6363636363636" y="490.93" as="sourcePoint" />
            <mxPoint x="400" y="491" as="targetPoint" />
          </mxGeometry>
        </mxCell>
        <mxCell id="h7d7KQx7B3C2yVi_9Bmd-72" value="&lt;font style=&quot;font-size: 8px;&quot;&gt;受约束的触发&lt;/font&gt;" style="text;strokeColor=none;align=center;fillColor=none;html=1;verticalAlign=middle;whiteSpace=wrap;rounded=0;container=0;" vertex="1" parent="1">
          <mxGeometry x="302.2690909090909" y="490" width="92.72727272727272" height="30" as="geometry" />
        </mxCell>
        <mxCell id="h7d7KQx7B3C2yVi_9Bmd-73" value="" style="endArrow=none;html=1;rounded=0;" edge="1" parent="1">
          <mxGeometry width="50" height="50" relative="1" as="geometry">
            <mxPoint x="399.81818181818187" y="490.93" as="sourcePoint" />
            <mxPoint x="399.81818181818187" y="476" as="targetPoint" />
          </mxGeometry>
        </mxCell>
        <mxCell id="h7d7KQx7B3C2yVi_9Bmd-74" value="" style="endArrow=none;html=1;rounded=0;" edge="1" parent="1">
          <mxGeometry width="50" height="50" relative="1" as="geometry">
            <mxPoint x="430.72727272727275" y="490.93" as="sourcePoint" />
            <mxPoint x="430.72727272727275" y="476" as="targetPoint" />
          </mxGeometry>
        </mxCell>
        <mxCell id="h7d7KQx7B3C2yVi_9Bmd-75" value="" style="endArrow=none;html=1;rounded=0;" edge="1" parent="1">
          <mxGeometry width="50" height="50" relative="1" as="geometry">
            <mxPoint x="399.81818181818187" y="476" as="sourcePoint" />
            <mxPoint x="430.72727272727275" y="476" as="targetPoint" />
          </mxGeometry>
        </mxCell>
        <mxCell id="h7d7KQx7B3C2yVi_9Bmd-77" value="" style="endArrow=none;html=1;rounded=0;" edge="1" parent="1">
          <mxGeometry width="50" height="50" relative="1" as="geometry">
            <mxPoint x="430.91" y="490.84" as="sourcePoint" />
            <mxPoint x="447.2736363636364" y="490.84" as="targetPoint" />
          </mxGeometry>
        </mxCell>
        <mxCell id="h7d7KQx7B3C2yVi_9Bmd-78" value="" style="endArrow=none;html=1;rounded=0;" edge="1" parent="1">
          <mxGeometry width="50" height="50" relative="1" as="geometry">
            <mxPoint x="447.09181818181827" y="490.77" as="sourcePoint" />
            <mxPoint x="447.09181818181827" y="475.84" as="targetPoint" />
          </mxGeometry>
        </mxCell>
        <mxCell id="h7d7KQx7B3C2yVi_9Bmd-79" value="" style="endArrow=none;html=1;rounded=0;" edge="1" parent="1">
          <mxGeometry width="50" height="50" relative="1" as="geometry">
            <mxPoint x="447.09181818181827" y="475.84" as="sourcePoint" />
            <mxPoint x="460" y="476" as="targetPoint" />
          </mxGeometry>
        </mxCell>
        <mxCell id="h7d7KQx7B3C2yVi_9Bmd-80" value="" style="endArrow=none;html=1;rounded=0;" edge="1" parent="1">
          <mxGeometry width="50" height="50" relative="1" as="geometry">
            <mxPoint x="459.73" y="490.93" as="sourcePoint" />
            <mxPoint x="459.73" y="476" as="targetPoint" />
          </mxGeometry>
        </mxCell>
        <mxCell id="h7d7KQx7B3C2yVi_9Bmd-81" value="" style="endArrow=none;html=1;rounded=0;" edge="1" parent="1">
          <mxGeometry width="50" height="50" relative="1" as="geometry">
            <mxPoint x="459.9127272727273" y="490.84" as="sourcePoint" />
            <mxPoint x="476.27636363636367" y="490.84" as="targetPoint" />
          </mxGeometry>
        </mxCell>
        <mxCell id="h7d7KQx7B3C2yVi_9Bmd-82" value="" style="endArrow=classic;startArrow=classic;html=1;rounded=0;strokeWidth=1;dashed=1;startSize=1;endSize=1;" edge="1" parent="1">
          <mxGeometry width="50" height="50" relative="1" as="geometry">
            <mxPoint x="261" y="480" as="sourcePoint" />
            <mxPoint x="323" y="480" as="targetPoint" />
          </mxGeometry>
        </mxCell>
        <mxCell id="h7d7KQx7B3C2yVi_9Bmd-83" value="t1" style="edgeLabel;html=1;align=center;verticalAlign=middle;resizable=0;points=[];" vertex="1" connectable="0" parent="h7d7KQx7B3C2yVi_9Bmd-82">
          <mxGeometry x="-0.009" y="2" relative="1" as="geometry">
            <mxPoint y="2" as="offset" />
          </mxGeometry>
        </mxCell>
        <mxCell id="h7d7KQx7B3C2yVi_9Bmd-84" value="" style="endArrow=classic;startArrow=classic;html=1;rounded=0;strokeWidth=1;dashed=1;startSize=1;endSize=1;" edge="1" parent="1">
          <mxGeometry width="50" height="50" relative="1" as="geometry">
            <mxPoint x="321.63" y="480" as="sourcePoint" />
            <mxPoint x="400" y="480" as="targetPoint" />
          </mxGeometry>
        </mxCell>
        <mxCell id="h7d7KQx7B3C2yVi_9Bmd-85" value="t2" style="edgeLabel;html=1;align=center;verticalAlign=middle;resizable=0;points=[];" vertex="1" connectable="0" parent="h7d7KQx7B3C2yVi_9Bmd-84">
          <mxGeometry x="-0.009" y="2" relative="1" as="geometry">
            <mxPoint x="1" y="2" as="offset" />
          </mxGeometry>
        </mxCell>
        <mxCell id="h7d7KQx7B3C2yVi_9Bmd-86" value="" style="endArrow=classic;startArrow=classic;html=1;rounded=0;strokeWidth=1;dashed=1;startSize=1;endSize=1;" edge="1" parent="1">
          <mxGeometry width="50" height="50" relative="1" as="geometry">
            <mxPoint x="399" y="480" as="sourcePoint" />
            <mxPoint x="447" y="480" as="targetPoint" />
          </mxGeometry>
        </mxCell>
        <mxCell id="h7d7KQx7B3C2yVi_9Bmd-87" value="t3" style="edgeLabel;html=1;align=center;verticalAlign=middle;resizable=0;points=[];" vertex="1" connectable="0" parent="h7d7KQx7B3C2yVi_9Bmd-86">
          <mxGeometry x="-0.009" y="2" relative="1" as="geometry">
            <mxPoint y="2" as="offset" />
          </mxGeometry>
        </mxCell>
        <mxCell id="h7d7KQx7B3C2yVi_9Bmd-90" style="edgeStyle=orthogonalEdgeStyle;rounded=0;orthogonalLoop=1;jettySize=auto;html=1;" edge="1" parent="1" source="h7d7KQx7B3C2yVi_9Bmd-88">
          <mxGeometry relative="1" as="geometry">
            <mxPoint x="220" y="490" as="targetPoint" />
          </mxGeometry>
        </mxCell>
        <mxCell id="h7d7KQx7B3C2yVi_9Bmd-88" value="触发生成Agent" style="rounded=1;whiteSpace=wrap;html=1;" vertex="1" parent="1">
          <mxGeometry x="100" y="460" width="100" height="60" as="geometry" />
        </mxCell>
        <mxCell id="h7d7KQx7B3C2yVi_9Bmd-97" value="&lt;div&gt;触发极性&lt;/div&gt;&lt;div&gt;初始电平&lt;/div&gt;" style="rounded=0;whiteSpace=wrap;html=1;" vertex="1" parent="1">
          <mxGeometry x="110" y="550" width="90" height="30" as="geometry" />
        </mxCell>
        <mxCell id="h7d7KQx7B3C2yVi_9Bmd-98" value="触发延时数组" style="rounded=0;whiteSpace=wrap;html=1;" vertex="1" parent="1">
          <mxGeometry x="110" y="580" width="90" height="30" as="geometry" />
        </mxCell>
        <mxCell id="h7d7KQx7B3C2yVi_9Bmd-99" value="act_t1" style="rounded=0;whiteSpace=wrap;html=1;" vertex="1" parent="1">
          <mxGeometry x="359.47" y="590" width="81.37" height="20" as="geometry" />
        </mxCell>
        <mxCell id="h7d7KQx7B3C2yVi_9Bmd-103" value="act_t2" style="rounded=0;whiteSpace=wrap;html=1;" vertex="1" parent="1">
          <mxGeometry x="359.15999999999997" y="610" width="80.68" height="20" as="geometry" />
        </mxCell>
        <mxCell id="h7d7KQx7B3C2yVi_9Bmd-104" value="act_t3" style="rounded=0;whiteSpace=wrap;html=1;" vertex="1" parent="1">
          <mxGeometry x="359.5" y="630" width="80.68" height="20" as="geometry" />
        </mxCell>
        <mxCell id="h7d7KQx7B3C2yVi_9Bmd-105" value="&lt;font style=&quot;font-size: 8px;&quot;&gt;中断处理，寄存器读出&lt;/font&gt;" style="text;strokeColor=none;align=center;fillColor=none;html=1;verticalAlign=middle;whiteSpace=wrap;rounded=0;" vertex="1" parent="1">
          <mxGeometry x="336" y="560" width="130" height="30" as="geometry" />
        </mxCell>
        <mxCell id="h7d7KQx7B3C2yVi_9Bmd-106" value="exp_t1" style="rounded=0;whiteSpace=wrap;html=1;" vertex="1" parent="1">
          <mxGeometry x="239.47000000000006" y="590" width="81.37" height="20" as="geometry" />
        </mxCell>
        <mxCell id="h7d7KQx7B3C2yVi_9Bmd-107" value="exp_t2" style="rounded=0;whiteSpace=wrap;html=1;" vertex="1" parent="1">
          <mxGeometry x="239.16" y="610" width="80.68" height="20" as="geometry" />
        </mxCell>
        <mxCell id="h7d7KQx7B3C2yVi_9Bmd-108" value="exp_t3" style="rounded=0;whiteSpace=wrap;html=1;" vertex="1" parent="1">
          <mxGeometry x="239.50000000000003" y="630" width="80.68" height="20" as="geometry" />
        </mxCell>
        <mxCell id="h7d7KQx7B3C2yVi_9Bmd-109" value="&lt;font style=&quot;font-size: 8px;&quot;&gt;From 被动agent monitor&lt;/font&gt;" style="text;strokeColor=none;align=center;fillColor=none;html=1;verticalAlign=middle;whiteSpace=wrap;rounded=0;" vertex="1" parent="1">
          <mxGeometry x="234.73" y="560" width="90.84" height="30" as="geometry" />
        </mxCell>
      </root>
    </mxGraphModel>
  </diagram>
</mxfile>
